<svg width="117" height="137" viewBox="0 0 117 137" fill="none" xmlns="http://www.w3.org/2000/svg">
<path d="M45.3398 0.570312H0.894531V64.477H45.3398V0.570312Z" fill="black"/>
<path d="M45.3398 0.570312H0.894531V64.477H45.3398V0.570312Z" fill="black" fill-opacity="0.2"/>
<path d="M0.890678 72.2617H45.3359V136.168H0.890678V72.2617Z" fill="black"/>
<path d="M116.914 32.5237C116.914 14.8763 102.608 0.570312 84.9607 0.570312H53.0076V64.477H84.9607C102.608 64.477 116.914 50.171 116.914 32.5237V32.5237Z" fill="black"/>
<path d="M116.914 32.5237C116.914 14.8763 102.608 0.570312 84.9607 0.570312H53.0076V64.477H84.9607C102.608 64.477 116.914 50.171 116.914 32.5237V32.5237Z" fill="black" fill-opacity="0.2"/>
<path d="M53.0059 72.2617H84.959C102.606 72.2617 116.912 86.5677 116.912 104.215V104.215C116.912 121.862 102.606 136.168 84.9589 136.168H53.0059V72.2617Z" fill="black"/>
</svg>
