<svg width="117" height="137" viewBox="0 0 117 137" fill="none" xmlns="http://www.w3.org/2000/svg">
<path d="M44.5468 0.570312H0.101562V64.477H44.5468V0.570312Z" fill="white"/>
<path d="M44.5468 0.570312H0.101562V64.477H44.5468V0.570312Z" fill="white" fill-opacity="0.2"/>
<path d="M0.0977097 72.2617H44.543V136.168H0.0977097V72.2617Z" fill="white"/>
<path d="M116.121 32.5237C116.121 14.8763 101.815 0.570312 84.1677 0.570312H52.2146V64.477H84.1677C101.815 64.477 116.121 50.171 116.121 32.5237V32.5237Z" fill="white"/>
<path d="M116.121 32.5237C116.121 14.8763 101.815 0.570312 84.1677 0.570312H52.2146V64.477H84.1677C101.815 64.477 116.121 50.171 116.121 32.5237V32.5237Z" fill="white" fill-opacity="0.2"/>
<path d="M52.2129 72.2617H84.166C101.813 72.2617 116.119 86.5677 116.119 104.215V104.215C116.119 121.862 101.813 136.168 84.166 136.168H52.2129V72.2617Z" fill="white"/>
</svg>
