<svg width="522" height="136" viewBox="0 0 522 136" fill="none" xmlns="http://www.w3.org/2000/svg">
<path d="M44.7343 0.320312H0.289062V64.227H44.7343V0.320312Z" fill="black"/>
<path d="M44.7343 0.320312H0.289062V64.227H44.7343V0.320312Z" fill="black" fill-opacity="0.2"/>
<path d="M0.28521 72.0117H44.7305V135.918H0.28521V72.0117Z" fill="black"/>
<path d="M116.309 32.2737C116.309 14.6263 102.003 0.320312 84.3552 0.320312H52.4021V64.227H84.3552C102.003 64.227 116.309 49.921 116.309 32.2737V32.2737Z" fill="black"/>
<path d="M116.309 32.2737C116.309 14.6263 102.003 0.320312 84.3552 0.320312H52.4021V64.227H84.3552C102.003 64.227 116.309 49.921 116.309 32.2737V32.2737Z" fill="black" fill-opacity="0.2"/>
<path d="M52.4004 72.0117H84.3535C102.001 72.0117 116.307 86.3177 116.307 103.965V103.965C116.307 121.612 102.001 135.918 84.3535 135.918H52.4004V72.0117Z" fill="black"/>
<path d="M154.302 103.633V31.0308H197.864C202.773 31.0308 206.749 32.5866 209.791 35.6981C212.903 38.7405 214.458 42.7163 214.458 47.6256V51.7743C214.458 59.3802 211.623 63.8746 205.954 65.2575V65.7761C208.581 66.3984 210.828 67.8504 212.695 70.1322C214.562 72.414 215.496 75.802 215.496 80.2965V87.0381C215.496 91.9473 213.94 95.9577 210.828 99.0693C207.786 102.112 203.81 103.633 198.901 103.633H154.302ZM197.345 62.6645C200.664 62.6645 203.222 61.7657 205.02 59.9679C206.818 58.1701 207.717 55.6118 207.717 52.2928V48.1441C207.717 44.8252 206.818 42.2668 205.02 40.4691C203.222 38.6713 200.664 37.7724 197.345 37.7724H161.044V62.6645H197.345ZM198.382 96.8912C201.701 96.8912 204.259 95.9923 206.057 94.1946C207.855 92.3968 208.754 89.8384 208.754 86.5195V79.7779C208.754 76.4589 207.82 73.9006 205.954 72.1028C204.156 70.305 201.632 69.4062 198.382 69.4062H161.044V96.8912H198.382ZM284.419 103.633H229.967V31.0308H236.709V96.8912H284.419V103.633ZM304.656 104.67C299.747 104.67 295.736 103.149 292.625 100.106C289.582 96.9949 288.061 92.9845 288.061 88.0752V46.5884C288.061 41.6791 289.582 37.7033 292.625 34.6609C295.736 31.5494 299.747 29.9936 304.656 29.9936H336.29C341.199 29.9936 345.175 31.5494 348.217 34.6609C351.328 37.7033 352.884 41.6791 352.884 46.5884V88.0752C352.884 92.9845 351.328 96.9949 348.217 100.106C345.175 103.149 341.199 104.67 336.29 104.67H304.656ZM335.771 97.9284C339.159 97.9284 341.717 97.0641 343.446 95.3354C345.244 93.5377 346.143 90.9448 346.143 87.5567V47.107C346.143 43.7189 345.244 41.1605 343.446 39.4319C341.717 37.6341 339.159 36.7353 335.771 36.7353H305.174C301.786 36.7353 299.193 37.6341 297.396 39.4319C295.667 41.1605 294.803 43.7189 294.803 47.107V87.5567C294.803 90.9448 295.667 93.5377 297.396 95.3354C299.193 97.0641 301.786 97.9284 305.174 97.9284H335.771ZM382.954 103.633C378.045 103.633 374.034 102.112 370.923 99.0693C367.881 95.9577 366.359 91.9473 366.359 87.0381V47.6256C366.359 42.7163 367.881 38.7405 370.923 35.6981C374.034 32.5866 378.045 31.0308 382.954 31.0308H424.96V35.6981L422.885 37.7724H383.473C380.085 37.7724 377.492 38.6713 375.694 40.4691C373.965 42.1977 373.101 44.7561 373.101 48.1441V86.5195C373.101 89.9076 373.965 92.5005 375.694 94.2983C377.492 96.0269 380.085 96.8912 383.473 96.8912H424.96V103.633H382.954ZM435.352 103.633H429.647V100.003L457.132 66.2946L431.721 34.6609V31.0308H437.426L461.799 61.6274H462.318L486.691 31.0308H492.396V34.6609L466.985 66.2946L494.47 100.003V103.633H488.766L462.318 70.9619H461.799L435.352 103.633ZM507.467 103.633H500.726V93.7797H507.467V103.633Z" fill="#F3F0F0"/>
</svg>
