<svg width="523" height="136" viewBox="0 0 523 136" fill="none" xmlns="http://www.w3.org/2000/svg">
<path d="M45.1288 0.383789H0.683594V64.2905H45.1288V0.383789Z" fill="url(#paint0_linear_50_6612)"/>
<path d="M0.679741 72.0752H45.125V135.982H0.679741V72.0752Z" fill="url(#paint1_linear_50_6612)"/>
<path d="M116.703 32.3372C116.703 14.6898 102.397 0.383789 84.7498 0.383789H52.7967V64.2905H84.7498C102.397 64.2905 116.703 49.9845 116.703 32.3372Z" fill="url(#paint2_linear_50_6612)"/>
<path d="M52.7949 72.0752H84.748C102.395 72.0752 116.701 86.3812 116.701 104.029C116.701 121.676 102.395 135.982 84.748 135.982H52.7949V72.0752Z" fill="url(#paint3_linear_50_6612)"/>
<path d="M154.697 103.696V31.0943H198.258C203.167 31.0943 207.143 32.6501 210.186 35.7616C213.297 38.8039 214.853 42.7798 214.853 47.689V51.8377C214.853 59.4436 212.018 63.9381 206.348 65.321V65.8395C208.976 66.4618 211.223 67.9139 213.09 70.1957C214.957 72.4774 215.89 75.8655 215.89 80.3599V87.1015C215.89 92.0108 214.334 96.0212 211.223 99.1327C208.18 102.175 204.205 103.696 199.295 103.696H154.697ZM197.74 62.728C201.058 62.728 203.617 61.8291 205.415 60.0314C207.212 58.2336 208.111 55.6753 208.111 52.3563V48.2076C208.111 44.8887 207.212 42.3303 205.415 40.5326C203.617 38.7348 201.058 37.8359 197.74 37.8359H161.439V62.728H197.74ZM198.777 96.9547C202.096 96.9547 204.654 96.0558 206.452 94.258C208.25 92.4603 209.148 89.9019 209.148 86.583V79.8413C209.148 76.5224 208.215 73.964 206.348 72.1663C204.55 70.3685 202.027 69.4696 198.777 69.4696H161.439V96.9547H198.777ZM284.813 103.696H230.362V31.0943H237.103V96.9547H284.813V103.696ZM305.05 104.733C300.141 104.733 296.131 103.212 293.019 100.17C289.977 97.0584 288.456 93.048 288.456 88.1387V46.6519C288.456 41.7426 289.977 37.7668 293.019 34.7244C296.131 31.6129 300.141 30.0571 305.05 30.0571H336.684C341.593 30.0571 345.569 31.6129 348.612 34.7244C351.723 37.7668 353.279 41.7426 353.279 46.6519V88.1387C353.279 93.048 351.723 97.0584 348.612 100.17C345.569 103.212 341.593 104.733 336.684 104.733H305.05ZM336.165 97.9918C339.554 97.9918 342.112 97.1275 343.841 95.3989C345.638 93.6012 346.537 91.0082 346.537 87.6201V47.1705C346.537 43.7824 345.638 41.224 343.841 39.4954C342.112 37.6976 339.554 36.7987 336.165 36.7987H305.569C302.181 36.7987 299.588 37.6976 297.79 39.4954C296.061 41.224 295.197 43.7824 295.197 47.1705V87.6201C295.197 91.0082 296.061 93.6012 297.79 95.3989C299.588 97.1275 302.181 97.9918 305.569 97.9918H336.165ZM383.349 103.696C378.439 103.696 374.429 102.175 371.317 99.1327C368.275 96.0212 366.754 92.0108 366.754 87.1015V47.689C366.754 42.7798 368.275 38.8039 371.317 35.7616C374.429 32.6501 378.439 31.0943 383.349 31.0943H425.354V35.7616L423.28 37.8359H383.867C380.479 37.8359 377.886 38.7348 376.088 40.5326C374.36 42.2612 373.496 44.8195 373.496 48.2076V86.583C373.496 89.9711 374.36 92.564 376.088 94.3617C377.886 96.0904 380.479 96.9547 383.867 96.9547H425.354V103.696H383.349ZM435.746 103.696H430.042V100.066L457.527 66.3581L432.116 34.7244V31.0943H437.82L462.194 61.6909H462.712L487.086 31.0943H492.79V34.7244L467.38 66.3581L494.865 100.066V103.696H489.16L462.712 71.0254H462.194L435.746 103.696ZM507.862 103.696H501.12V93.8432H507.862V103.696Z" fill="#F3F0F0"/>
<defs>
<linearGradient id="paint0_linear_50_6612" x1="-13.4477" y1="75.1461" x2="74.4872" y2="5.47333" gradientUnits="userSpaceOnUse">
<stop stop-color="#1B2330"/>
<stop offset="0.43" stop-color="#B2CCF4"/>
<stop offset="1"/>
</linearGradient>
<linearGradient id="paint1_linear_50_6612" x1="55.5699" y1="172.891" x2="-39.1668" y2="95.4401" gradientUnits="userSpaceOnUse">
<stop/>
<stop offset="0.590263" stop-color="#577CB3"/>
<stop offset="1" stop-color="#12283F"/>
</linearGradient>
<linearGradient id="paint2_linear_50_6612" x1="122.16" y1="76.3409" x2="30.8452" y2="-19.7008" gradientUnits="userSpaceOnUse">
<stop stop-color="#1B2330"/>
<stop offset="0.43" stop-color="#B2CCF4"/>
<stop offset="1"/>
</linearGradient>
<linearGradient id="paint3_linear_50_6612" x1="23.8948" y1="162.094" x2="116.702" y2="67.7522" gradientUnits="userSpaceOnUse">
<stop/>
<stop offset="0.63825" stop-color="#577CB3"/>
<stop offset="1" stop-color="#1B2330"/>
</linearGradient>
</defs>
</svg>
