<svg width="522" height="136" viewBox="0 0 522 136" fill="none" xmlns="http://www.w3.org/2000/svg">
<path d="M44.7343 0.383789H0.289062V64.2905H44.7343V0.383789Z" fill="white"/>
<path d="M44.7343 0.383789H0.289062V64.2905H44.7343V0.383789Z" fill="white" fill-opacity="0.2"/>
<path d="M0.28521 72.0752H44.7305V135.982H0.28521V72.0752Z" fill="white"/>
<path d="M116.309 32.3372C116.309 14.6898 102.003 0.383789 84.3552 0.383789H52.4021V64.2905H84.3552C102.003 64.2905 116.309 49.9845 116.309 32.3372V32.3372Z" fill="white"/>
<path d="M116.309 32.3372C116.309 14.6898 102.003 0.383789 84.3552 0.383789H52.4021V64.2905H84.3552C102.003 64.2905 116.309 49.9845 116.309 32.3372V32.3372Z" fill="white" fill-opacity="0.2"/>
<path d="M52.4004 72.0752H84.3535C102.001 72.0752 116.307 86.3812 116.307 104.029V104.029C116.307 121.676 102.001 135.982 84.3535 135.982H52.4004V72.0752Z" fill="white"/>
<path d="M154.302 103.696V31.0943H197.864C202.773 31.0943 206.749 32.6501 209.791 35.7616C212.903 38.8039 214.458 42.7798 214.458 47.689V51.8377C214.458 59.4436 211.623 63.9381 205.954 65.321V65.8395C208.581 66.4618 210.828 67.9139 212.695 70.1957C214.562 72.4774 215.496 75.8655 215.496 80.3599V87.1015C215.496 92.0108 213.94 96.0212 210.828 99.1327C207.786 102.175 203.81 103.696 198.901 103.696H154.302ZM197.345 62.728C200.664 62.728 203.222 61.8291 205.02 60.0314C206.818 58.2336 207.717 55.6753 207.717 52.3563V48.2076C207.717 44.8887 206.818 42.3303 205.02 40.5326C203.222 38.7348 200.664 37.8359 197.345 37.8359H161.044V62.728H197.345ZM198.382 96.9547C201.701 96.9547 204.259 96.0558 206.057 94.258C207.855 92.4603 208.754 89.9019 208.754 86.583V79.8413C208.754 76.5224 207.82 73.964 205.954 72.1663C204.156 70.3685 201.632 69.4696 198.382 69.4696H161.044V96.9547H198.382ZM284.419 103.696H229.967V31.0943H236.709V96.9547H284.419V103.696ZM304.656 104.733C299.747 104.733 295.736 103.212 292.625 100.17C289.582 97.0584 288.061 93.048 288.061 88.1387V46.6519C288.061 41.7426 289.582 37.7668 292.625 34.7244C295.736 31.6129 299.747 30.0571 304.656 30.0571H336.29C341.199 30.0571 345.175 31.6129 348.217 34.7244C351.328 37.7668 352.884 41.7426 352.884 46.6519V88.1387C352.884 93.048 351.328 97.0584 348.217 100.17C345.175 103.212 341.199 104.733 336.29 104.733H304.656ZM335.771 97.9918C339.159 97.9918 341.717 97.1275 343.446 95.3989C345.244 93.6012 346.143 91.0082 346.143 87.6201V47.1705C346.143 43.7824 345.244 41.224 343.446 39.4954C341.717 37.6976 339.159 36.7987 335.771 36.7987H305.174C301.786 36.7987 299.193 37.6976 297.396 39.4954C295.667 41.224 294.803 43.7824 294.803 47.1705V87.6201C294.803 91.0082 295.667 93.6012 297.396 95.3989C299.193 97.1275 301.786 97.9918 305.174 97.9918H335.771ZM382.954 103.696C378.045 103.696 374.034 102.175 370.923 99.1327C367.881 96.0212 366.359 92.0108 366.359 87.1015V47.689C366.359 42.7798 367.881 38.8039 370.923 35.7616C374.034 32.6501 378.045 31.0943 382.954 31.0943H424.96V35.7616L422.885 37.8359H383.473C380.085 37.8359 377.492 38.7348 375.694 40.5326C373.965 42.2612 373.101 44.8195 373.101 48.2076V86.583C373.101 89.9711 373.965 92.564 375.694 94.3617C377.492 96.0904 380.085 96.9547 383.473 96.9547H424.96V103.696H382.954ZM435.352 103.696H429.647V100.066L457.132 66.3581L431.721 34.7244V31.0943H437.426L461.799 61.6909H462.318L486.691 31.0943H492.396V34.7244L466.985 66.3581L494.47 100.066V103.696H488.766L462.318 71.0254H461.799L435.352 103.696ZM507.467 103.696H500.726V93.8432H507.467V103.696Z" fill="#F3F0F0"/>
</svg>
