<svg width="523" height="136" viewBox="0 0 523 136" fill="none" xmlns="http://www.w3.org/2000/svg">
<path d="M45.1288 0.320312H0.683594V64.227H45.1288V0.320312Z" fill="url(#paint0_linear_50_6619)"/>
<path d="M0.679741 72.0117H45.125V135.918H0.679741V72.0117Z" fill="url(#paint1_linear_50_6619)"/>
<path d="M116.703 32.2737C116.703 14.6263 102.397 0.320312 84.7498 0.320312H52.7967V64.227H84.7498C102.397 64.227 116.703 49.921 116.703 32.2737Z" fill="url(#paint2_linear_50_6619)"/>
<path d="M52.7949 72.0117H84.748C102.395 72.0117 116.701 86.3177 116.701 103.965C116.701 121.612 102.395 135.918 84.748 135.918H52.7949V72.0117Z" fill="url(#paint3_linear_50_6619)"/>
<path d="M154.697 103.633V31.0308H198.258C203.167 31.0308 207.143 32.5866 210.186 35.6981C213.297 38.7405 214.853 42.7163 214.853 47.6256V51.7743C214.853 59.3802 212.018 63.8746 206.348 65.2575V65.7761C208.976 66.3984 211.223 67.8504 213.09 70.1322C214.957 72.414 215.89 75.802 215.89 80.2965V87.0381C215.89 91.9473 214.334 95.9577 211.223 99.0693C208.18 102.112 204.205 103.633 199.295 103.633H154.697ZM197.74 62.6645C201.058 62.6645 203.617 61.7657 205.415 59.9679C207.212 58.1701 208.111 55.6118 208.111 52.2928V48.1441C208.111 44.8252 207.212 42.2668 205.415 40.4691C203.617 38.6713 201.058 37.7724 197.74 37.7724H161.439V62.6645H197.74ZM198.777 96.8912C202.096 96.8912 204.654 95.9923 206.452 94.1946C208.25 92.3968 209.148 89.8384 209.148 86.5195V79.7779C209.148 76.4589 208.215 73.9006 206.348 72.1028C204.55 70.305 202.027 69.4062 198.777 69.4062H161.439V96.8912H198.777ZM284.813 103.633H230.362V31.0308H237.103V96.8912H284.813V103.633ZM305.05 104.67C300.141 104.67 296.131 103.149 293.019 100.106C289.977 96.9949 288.456 92.9845 288.456 88.0752V46.5884C288.456 41.6791 289.977 37.7033 293.019 34.6609C296.131 31.5494 300.141 29.9936 305.05 29.9936H336.684C341.593 29.9936 345.569 31.5494 348.612 34.6609C351.723 37.7033 353.279 41.6791 353.279 46.5884V88.0752C353.279 92.9845 351.723 96.9949 348.612 100.106C345.569 103.149 341.593 104.67 336.684 104.67H305.05ZM336.165 97.9284C339.554 97.9284 342.112 97.0641 343.841 95.3354C345.638 93.5377 346.537 90.9448 346.537 87.5567V47.107C346.537 43.7189 345.638 41.1605 343.841 39.4319C342.112 37.6341 339.554 36.7353 336.165 36.7353H305.569C302.181 36.7353 299.588 37.6341 297.79 39.4319C296.061 41.1605 295.197 43.7189 295.197 47.107V87.5567C295.197 90.9448 296.061 93.5377 297.79 95.3354C299.588 97.0641 302.181 97.9284 305.569 97.9284H336.165ZM383.349 103.633C378.439 103.633 374.429 102.112 371.317 99.0693C368.275 95.9577 366.754 91.9473 366.754 87.0381V47.6256C366.754 42.7163 368.275 38.7405 371.317 35.6981C374.429 32.5866 378.439 31.0308 383.349 31.0308H425.354V35.6981L423.28 37.7724H383.867C380.479 37.7724 377.886 38.6713 376.088 40.4691C374.36 42.1977 373.496 44.7561 373.496 48.1441V86.5195C373.496 89.9076 374.36 92.5005 376.088 94.2983C377.886 96.0269 380.479 96.8912 383.867 96.8912H425.354V103.633H383.349ZM435.746 103.633H430.042V100.003L457.527 66.2946L432.116 34.6609V31.0308H437.82L462.194 61.6274H462.712L487.086 31.0308H492.79V34.6609L467.38 66.2946L494.865 100.003V103.633H489.16L462.712 70.9619H462.194L435.746 103.633ZM507.862 103.633H501.12V93.7797H507.862V103.633Z" fill="#0C0B0B"/>
<defs>
<linearGradient id="paint0_linear_50_6619" x1="-13.4477" y1="75.0826" x2="74.4872" y2="5.40986" gradientUnits="userSpaceOnUse">
<stop stop-color="#1B2330"/>
<stop offset="0.43" stop-color="#B2CCF4"/>
<stop offset="1"/>
</linearGradient>
<linearGradient id="paint1_linear_50_6619" x1="55.5699" y1="172.828" x2="-39.1668" y2="95.3766" gradientUnits="userSpaceOnUse">
<stop/>
<stop offset="0.590263" stop-color="#577CB3"/>
<stop offset="1" stop-color="#12283F"/>
</linearGradient>
<linearGradient id="paint2_linear_50_6619" x1="122.16" y1="76.2774" x2="30.8452" y2="-19.7643" gradientUnits="userSpaceOnUse">
<stop stop-color="#1B2330"/>
<stop offset="0.43" stop-color="#B2CCF4"/>
<stop offset="1"/>
</linearGradient>
<linearGradient id="paint3_linear_50_6619" x1="23.8948" y1="162.03" x2="116.702" y2="67.6887" gradientUnits="userSpaceOnUse">
<stop/>
<stop offset="0.63825" stop-color="#577CB3"/>
<stop offset="1" stop-color="#1B2330"/>
</linearGradient>
</defs>
</svg>
